<mxfile host="app.diagrams.net" agent="Mozilla/5.0 (Windows NT 10.0; Win64; x64) AppleWebKit/537.36 (KHTML, like Gecko) Chrome/140.0.0.0 Safari/537.36 Edg/140.0.0.0" version="28.2.3">
  <diagram name="Página-1" id="phXb151KVtUWPxuoOn_g">
    <mxGraphModel dx="859" dy="476" grid="1" gridSize="10" guides="1" tooltips="1" connect="1" arrows="1" fold="1" page="1" pageScale="1" pageWidth="827" pageHeight="1169" math="0" shadow="0">
      <root>
        <mxCell id="0" />
        <mxCell id="1" parent="0" />
        <mxCell id="mb_ioIwvZk3uC3HGm3VY-26" value="" style="edgeStyle=orthogonalEdgeStyle;rounded=0;orthogonalLoop=1;jettySize=auto;html=1;" edge="1" parent="1" source="mb_ioIwvZk3uC3HGm3VY-24" target="mb_ioIwvZk3uC3HGm3VY-25">
          <mxGeometry relative="1" as="geometry" />
        </mxCell>
        <mxCell id="mb_ioIwvZk3uC3HGm3VY-24" value="Inicio" style="ellipse;whiteSpace=wrap;html=1;" vertex="1" parent="1">
          <mxGeometry x="40" y="10" width="120" height="40" as="geometry" />
        </mxCell>
        <mxCell id="mb_ioIwvZk3uC3HGm3VY-42" value="" style="edgeStyle=orthogonalEdgeStyle;rounded=0;orthogonalLoop=1;jettySize=auto;html=1;" edge="1" parent="1" target="mb_ioIwvZk3uC3HGm3VY-27">
          <mxGeometry relative="1" as="geometry">
            <mxPoint x="115.05263157894751" y="120" as="sourcePoint" />
            <Array as="points">
              <mxPoint x="100" y="120" />
            </Array>
          </mxGeometry>
        </mxCell>
        <mxCell id="mb_ioIwvZk3uC3HGm3VY-25" value="Ler n1=0, times=0, nResult=0, nAll=0" style="shape=parallelogram;perimeter=parallelogramPerimeter;whiteSpace=wrap;html=1;fixedSize=1;" vertex="1" parent="1">
          <mxGeometry y="80" width="200" height="40" as="geometry" />
        </mxCell>
        <mxCell id="mb_ioIwvZk3uC3HGm3VY-29" value="" style="edgeStyle=orthogonalEdgeStyle;rounded=0;orthogonalLoop=1;jettySize=auto;html=1;" edge="1" parent="1" source="mb_ioIwvZk3uC3HGm3VY-27" target="mb_ioIwvZk3uC3HGm3VY-28">
          <mxGeometry relative="1" as="geometry" />
        </mxCell>
        <mxCell id="mb_ioIwvZk3uC3HGm3VY-34" value="Sim" style="edgeLabel;html=1;align=center;verticalAlign=middle;resizable=0;points=[];" vertex="1" connectable="0" parent="mb_ioIwvZk3uC3HGm3VY-29">
          <mxGeometry x="-0.696" y="1" relative="1" as="geometry">
            <mxPoint as="offset" />
          </mxGeometry>
        </mxCell>
        <mxCell id="mb_ioIwvZk3uC3HGm3VY-36" value="" style="edgeStyle=orthogonalEdgeStyle;rounded=0;orthogonalLoop=1;jettySize=auto;html=1;" edge="1" parent="1" source="mb_ioIwvZk3uC3HGm3VY-27" target="mb_ioIwvZk3uC3HGm3VY-35">
          <mxGeometry relative="1" as="geometry" />
        </mxCell>
        <mxCell id="mb_ioIwvZk3uC3HGm3VY-37" value="Não" style="edgeLabel;html=1;align=center;verticalAlign=middle;resizable=0;points=[];" vertex="1" connectable="0" parent="mb_ioIwvZk3uC3HGm3VY-36">
          <mxGeometry x="-0.48" y="-1" relative="1" as="geometry">
            <mxPoint as="offset" />
          </mxGeometry>
        </mxCell>
        <mxCell id="mb_ioIwvZk3uC3HGm3VY-27" value="nAll &amp;gt; 1000" style="rhombus;whiteSpace=wrap;html=1;" vertex="1" parent="1">
          <mxGeometry x="60" y="150" width="80" height="80" as="geometry" />
        </mxCell>
        <mxCell id="mb_ioIwvZk3uC3HGm3VY-32" value="" style="edgeStyle=orthogonalEdgeStyle;rounded=0;orthogonalLoop=1;jettySize=auto;html=1;" edge="1" parent="1" source="mb_ioIwvZk3uC3HGm3VY-28" target="mb_ioIwvZk3uC3HGm3VY-31">
          <mxGeometry relative="1" as="geometry" />
        </mxCell>
        <mxCell id="mb_ioIwvZk3uC3HGm3VY-28" value="nResult = nAll/times" style="whiteSpace=wrap;html=1;" vertex="1" parent="1">
          <mxGeometry x="40" y="260" width="120" height="30" as="geometry" />
        </mxCell>
        <mxCell id="mb_ioIwvZk3uC3HGm3VY-30" value="Fim" style="ellipse;whiteSpace=wrap;html=1;" vertex="1" parent="1">
          <mxGeometry x="40" y="420" width="120" height="40" as="geometry" />
        </mxCell>
        <mxCell id="mb_ioIwvZk3uC3HGm3VY-33" value="" style="edgeStyle=orthogonalEdgeStyle;rounded=0;orthogonalLoop=1;jettySize=auto;html=1;" edge="1" parent="1" source="mb_ioIwvZk3uC3HGm3VY-31" target="mb_ioIwvZk3uC3HGm3VY-30">
          <mxGeometry relative="1" as="geometry" />
        </mxCell>
        <mxCell id="mb_ioIwvZk3uC3HGm3VY-31" value="Escrever nResult&lt;div&gt;Escrever times&lt;/div&gt;&lt;div&gt;Escrever nAll&lt;/div&gt;" style="shape=parallelogram;perimeter=parallelogramPerimeter;whiteSpace=wrap;html=1;fixedSize=1;" vertex="1" parent="1">
          <mxGeometry x="35" y="330" width="130" height="60" as="geometry" />
        </mxCell>
        <mxCell id="mb_ioIwvZk3uC3HGm3VY-41" value="" style="edgeStyle=orthogonalEdgeStyle;rounded=0;orthogonalLoop=1;jettySize=auto;html=1;" edge="1" parent="1" source="mb_ioIwvZk3uC3HGm3VY-35" target="mb_ioIwvZk3uC3HGm3VY-40">
          <mxGeometry relative="1" as="geometry" />
        </mxCell>
        <mxCell id="mb_ioIwvZk3uC3HGm3VY-35" value="Ler n1" style="shape=parallelogram;perimeter=parallelogramPerimeter;whiteSpace=wrap;html=1;fixedSize=1;" vertex="1" parent="1">
          <mxGeometry x="195" y="170" width="85" height="40" as="geometry" />
        </mxCell>
        <mxCell id="mb_ioIwvZk3uC3HGm3VY-40" value="nAll+=n1&lt;div&gt;times++;&lt;/div&gt;" style="whiteSpace=wrap;html=1;" vertex="1" parent="1">
          <mxGeometry x="294" y="170" width="86" height="40" as="geometry" />
        </mxCell>
        <mxCell id="mb_ioIwvZk3uC3HGm3VY-44" value="" style="curved=1;endArrow=classic;html=1;rounded=0;exitX=0.42;exitY=0.016;exitDx=0;exitDy=0;exitPerimeter=0;entryX=1;entryY=0;entryDx=0;entryDy=0;" edge="1" parent="1" source="mb_ioIwvZk3uC3HGm3VY-40" target="mb_ioIwvZk3uC3HGm3VY-27">
          <mxGeometry width="50" height="50" relative="1" as="geometry">
            <mxPoint x="394.17000000000024" y="154.9999999999999" as="sourcePoint" />
            <mxPoint x="60.83666666666663" y="136.66666666666652" as="targetPoint" />
            <Array as="points">
              <mxPoint x="320" y="140" />
              <mxPoint x="190" y="130" />
            </Array>
          </mxGeometry>
        </mxCell>
        <mxCell id="mb_ioIwvZk3uC3HGm3VY-46" value="Fazer a média" style="strokeWidth=2;html=1;shape=mxgraph.flowchart.annotation_2;align=left;labelPosition=right;pointerEvents=1;" vertex="1" parent="1">
          <mxGeometry x="160" y="260" width="50" height="35" as="geometry" />
        </mxCell>
        <mxCell id="mb_ioIwvZk3uC3HGm3VY-47" value="Iniciar as variáveis" style="strokeWidth=2;html=1;shape=mxgraph.flowchart.annotation_2;align=left;labelPosition=right;pointerEvents=1;" vertex="1" parent="1">
          <mxGeometry x="190" y="80" width="50" height="30" as="geometry" />
        </mxCell>
        <mxCell id="mb_ioIwvZk3uC3HGm3VY-48" value="Somar o numero escolhido e&amp;nbsp;&lt;div&gt;&lt;span style=&quot;background-color: transparent; color: light-dark(rgb(0, 0, 0), rgb(255, 255, 255));&quot;&gt;somar o numero de vezes feitas no times.&lt;/span&gt;&lt;/div&gt;" style="strokeWidth=2;html=1;shape=mxgraph.flowchart.annotation_2;align=left;labelPosition=right;pointerEvents=1;" vertex="1" parent="1">
          <mxGeometry x="380" y="175" width="50" height="30" as="geometry" />
        </mxCell>
        <mxCell id="mb_ioIwvZk3uC3HGm3VY-49" value="Voltar para o inicio do if" style="strokeWidth=2;html=1;shape=mxgraph.flowchart.annotation_2;align=left;labelPosition=right;pointerEvents=1;" vertex="1" parent="1">
          <mxGeometry x="300" y="130" width="50" height="30" as="geometry" />
        </mxCell>
      </root>
    </mxGraphModel>
  </diagram>
</mxfile>
